{"title":"True Detective S02E05 1080p HDTV DD5 1 HEVC x265-DTG","uid":12143377,"size":1170055698,"categoryP":"video","categoryS":"hd___tv_shows","magnet":"?xt=urn:btih:06d5646426dc4bc1196130609d819dc689fb1b87&amp;dn=True+Detective+S02E05+1080p+HDTV+DD5+1+HEVC+x265-DTG&amp;tr=udp%3A%2F%2Ftracker.openbittorrent.com%3A80&amp;tr=udp%3A%2F%2Fopen.demonii.com%3A1337&amp;tr=udp%3A%2F%2Ftracker.coppersurfer.tk%3A6969&amp;tr=udp%3A%2F%2Fexodus.desync.com%3A6969","seeders":18,"leechers":0,"uploader":"D3tergent","files":1,"time":1437403805,"description":"WARNING : This episode is encoded with the new generation video codec HEVC. It will probably not work on your TV or BD player unless it's a recent one that supports it ! (or unless you plug a computer to your TV via HDMI)\n\nTrue Detective - S02E05 - Other Lives\n\n\nVideo : HEVC, 1920x1078\nAudio : AC3, 5.1, 384 kb/s (stereo for opening/ending)\nSubtitles : English\n\nSource : True Detective S02E05 1080i HDTV MPEG2 DD5.1-CtrlHD\n\nIf you have trouble playing this file on your computer, get MPC-HC (recommended) or the latest VLC.\n\nFormat : Matroska\nFormat version : Version 4 / Version 2\nFile size : 1.09 GiB\nDuration : 1h 1mn\nOverall bit rate : 2 545 Kbps\nEncoded date : UTC 2015-07-20 12:31:55\nWriting application : mkvmerge v8.1.0 ('Psychedelic Postcard') 64bit\nWriting library : Lavf56.36.100\nDURATION : 01:00:33.427000000\nNUMBER_OF_FRAMES : 929\nNUMBER_OF_BYTES : 30607\n_STATISTICS_WRITING_APP : mkvmerge v8.1.0 ('Psychedelic Postcard') 64bit\n_STATISTICS_WRITING_DATE_UTC : 2015-07-20 12:31:55\n_STATISTICS_TAGS : BPS DURATION NUMBER_OF_FRAMES NUMBER_OF_BYTES\n\nVideo\nID : 1\nFormat : HEVC\nFormat/Info : High Efficiency Video Coding\nFormat profile : &lt;a class=&quot;__cf_email__&quot; href=&quot;/cdn-cgi/l/email-protection&quot; data-cfemail=&quot;f1bc90989fb1bdc5dfc1&quot;&gt;[email&amp;#160;protected]&lt;/a&gt;&lt;script data-cfhash='f9e31' type=&quot;text/javascript&quot;&gt;\n/* &lt;![CDATA[ */!function(){try{var t=&quot;currentScript&quot;in document?document.currentScript:function(){for(var t=document.getElementsByTagName(&quot;script&quot;),e=t.length;e--;)if(t[e].getAttribute(&quot;data-cfhash&quot;))return t[e]}();if(t&amp;&amp;t.previousSibling){var e,r,n,i,c=t.previousSibling,a=c.getAttribute(&quot;data-cfemail&quot;);if(a){for(e=&quot;&quot;,r=parseInt(a.substr(0,2),16),n=2;a.length-n;n+=2)i=parseInt(a.substr(n,2),16)^r,e+=String.fromCharCode(i);e=document.createTextNode(e),c.parentNode.replaceChild(e,c)}t.parentNode.removeChild(t);}}catch(u){}}()/* ]]&gt; */&lt;/script&gt;\nCodec ID : V_MPEGH/ISO/HEVC\nDuration : 1h 1mn\nBit rate : 2 111 Kbps\nWidth : 1 920 pixels\nHeight : 1 078 pixels\nDisplay aspect ratio : 16:9\nFrame rate mode : Constant\nFrame rate : 23.976 fps\nColor space : YUV\nChroma subsampling : 4:2:0\nBit depth : 8 bits\nBits/(Pixel*Frame) : 0.043\nStream size : 925 MiB (83%)\nWriting library : x265 1.7+351-8efce8620ae2:[Linux][GCC 4.9.2][64 bit] 8bit\nEncoding settings : wpp / ctu=64 / min-cu-size=8 / max-tu-size=32 / tu-intra-depth=1 / tu-inter-depth=1 / me=3 / subme=3 / merange=57 / rect / no-amp / max-merge=3 / temporal-mvp / no-early-skip / rdpenalty=0 / no-tskip / no-tskip-fast / strong-intra-smoothing / no-lossless / no-cu-lossless / no-constrained-intra / no-fast-intra / open-gop / no-temporal-layers / interlace=0 / keyint=350 / min-keyint=23 / scenecut=40 / rc-lookahead=25 / lookahead-slices=0 / bframes=5 / bframe-bias=0 / b-adapt=2 / ref=3 / limit-refs=0 / weightp / no-weightb / aq-mode=1 / aq-strength=1.00 / cbqpoffs=0 / crqpoffs=0 / rd=4 / psy-rd=0.30 / rdoq-level=2 / psy-rdoq=1.00 / signhide / deblock / sao / no-sao-non-deblock / b-pyramid / cutree / rc=crf / crf=21.0 / qcomp=0.60 / qpmin=0 / qpmax=51 / qpstep=4 / ipratio=1.40 / pbratio=1.30\nLanguage : English\nDefault : Yes\nForced : No\nDURATION : 01:01:17.632000000\nNUMBER_OF_FRAMES : 114926\nNUMBER_OF_BYTES : 176526336\n_STATISTICS_WRITING_APP : mkvmerge v8.1.0 ('Psychedelic Postcard') 64bit\n_STATISTICS_WRITING_DATE_UTC : 2015-07-20 12:31:55\n_STATISTICS_TAGS : BPS DURATION NUMBER_OF_FRAMES NUMBER_OF_BYTES\n\nAudio\nID : 2\nFormat : AC-3\nFormat/Info : Audio Coding 3\nMode extension : CM (complete main)\nFormat settings, Endianness : Big\nCodec ID : A_AC3\nDuration : 1h 1mn\nBit rate mode : Constant\nBit rate : 384 Kbps\nChannel(s) : 2 channels\nChannel positions : Front: L R\nSampling rate : 48.0 KHz\nBit depth : 16 bits\nCompression mode : Lossy\nStream size : 168 MiB (15%)\nLanguage : English\nDefault : Yes\nForced : No\n\nText\nID : 3\nFormat : UTF-8\nCodec ID : S_TEXT/UTF8\nCodec ID/Info : UTF-8 Plain Text\nDefault : No\nForced : No","torrent":{"xt":"urn:btih:06d5646426dc4bc1196130609d819dc689fb1b87","amp;dn":"True+Detective+S02E05+1080p+HDTV+DD5+1+HEVC+x265-DTG","amp;tr":["udp%3A%2F%2Ftracker.openbittorrent.com%3A80","udp%3A%2F%2Fopen.demonii.com%3A1337","udp%3A%2F%2Ftracker.coppersurfer.tk%3A6969","udp%3A%2F%2Fexodus.desync.com%3A6969"],"infoHash":"06d5646426dc4bc1196130609d819dc689fb1b87","infoHashBuffer":{"type":"Buffer","data":[6,213,100,100,38,220,75,193,25,97,48,96,157,129,157,198,137,251,27,135]},"announce":[],"urlList":[]}}